# xmcd CD database file
#
# Track frame offsets:
#	150
#	13466
#	34198
#	47155
#	63181
#	81313
#	93619
#	110423
#	126750
#	144939
#	157500
#
# Disc length: 2396 seconds
#
# Revision: 0
# Processed by: cddbd v1.5.2PL0 Copyright (c) Steve Scherf et al.
# Submitted via: CDex 1.51
#
DISCID=8b095a0b
DTITLE=Rebekka Bakken - I Keep My Cool
DYEAR=2006
DGENRE=Blues
TTITLE0=We Hit it Again
TTITLE1=Welcome Home
TTITLE2=Just Having My Fun
TTITLE3=Any Pretty Girl
TTITLE4=Love May Seem Hard
TTITLE5=Hard to Be A Loser
TTITLE6=What Love Is Not
TTITLE7=You're Crying
TTITLE8=Nobody's Fool
TTITLE9=Everything Can Change
TTITLE10=Rebekka Bakken - You Bring New Stars
EXTD=YEAR: 2006
EXTT0=
EXTT1=
EXTT2=
EXTT3=
EXTT4=
EXTT5=
EXTT6=
EXTT7=
EXTT8=
EXTT9=
EXTT10=
PLAYORDER=
